<?xml version="1.0" encoding="UTF-8" standalone="no"?>
<svg
   xmlns:shaper="http://www.shapertools.com/namespaces/shaper"
   xmlns:dc="http://purl.org/dc/elements/1.1/"
   xmlns:cc="http://creativecommons.org/ns#"
   xmlns:rdf="http://www.w3.org/1999/02/22-rdf-syntax-ns#"
   xmlns:svg="http://www.w3.org/2000/svg"
   xmlns="http://www.w3.org/2000/svg"
   xmlns:sodipodi="http://sodipodi.sourceforge.net/DTD/sodipodi-0.dtd"
   xmlns:inkscape="http://www.inkscape.org/namespaces/inkscape"
   shaper:fusionaddin="version:1.6.10"
   width="400mm"
   height="300mm"
   version="1.1"
   x="0cm"
   y="0cm"
   viewBox="0 0 40 30"
   enable-background="new 0 0 15.3 15"
   xml:space="preserve"
   id="svg22"
   sodipodi:docname="maquette_porte_decoupe.svg"
   inkscape:version="1.0.2-2 (e86c870879, 2021-01-15)"><metadata
     id="metadata28"><rdf:RDF><cc:Work
         rdf:about=""><dc:format>image/svg+xml</dc:format><dc:type
           rdf:resource="http://purl.org/dc/dcmitype/StillImage" /><dc:title></dc:title></cc:Work></rdf:RDF></metadata><defs
     id="defs26" /><sodipodi:namedview
     pagecolor="#ffffff"
     bordercolor="#666666"
     borderopacity="1"
     objecttolerance="10"
     gridtolerance="10"
     guidetolerance="10"
     inkscape:pageopacity="0"
     inkscape:pageshadow="2"
     inkscape:window-width="1898"
     inkscape:window-height="1024"
     id="namedview24"
     showgrid="false"
     units="mm"
     inkscape:zoom="0.69621982"
     inkscape:cx="714.75774"
     inkscape:cy="325.27151"
     inkscape:window-x="0"
     inkscape:window-y="0"
     inkscape:window-maximized="0"
     inkscape:current-layer="svg22"
     inkscape:document-rotation="0"
     showguides="false"
     inkscape:document-units="mm" /><path
     id="path2"
     style="stroke-width:0.02;stroke-miterlimit:4;stroke-dasharray:none;fill:none;stroke:#ff0000;stroke-opacity:1"
     d="M 1.606765,0.12454569 A 1.4999998,1.4999998 0 0 0 0.1067534,1.6245573 V 13.624547 a 1.4999998,1.4999998 0 0 0 1.5000116,1.500011 h 12.299971 a 1.4999998,1.4999998 0 0 0 1.500012,-1.500011 V 1.6245573 A 1.4999998,1.4999998 0 0 0 13.906736,0.12454569 Z M 13.606754,2.6245478 h 0.299982 v 0.9999905 h -0.299982 z m -0.06211,2.1600229 a 0.21213203,0.21213203 0 0 1 0.424264,0 0.21213203,0.21213203 0 0 1 -0.424264,0 z m 0.06211,4.8399625 h 0.299982 v 0.9999898 h -0.299982 z m 0,2.0000318 h 0.299982 v 0.999991 h -0.299982 z m -10.9999984,1.7 H 3.606746 v 0.299982 H 2.6067556 Z m 2.500002,0 h 0.9999907 v 0.299982 H 5.1067576 Z m 1.9999817,0 h 0.99999 v 0.299982 h -0.99999 z m 2.000032,0 h 0.9999907 v 0.299982 H 9.1067713 Z m 2.5000017,0 h 0.999991 v 0.299982 h -0.999991 z" /><path
     id="path2-1"
     style="fill:none;stroke:#ff0000;stroke-width:0.02;stroke-miterlimit:4;stroke-dasharray:none;stroke-opacity:1"
     d="m 17.949416,15.758838 h -4.479984 v 5.379981 h 0.299981 v -0.299982 h 4.180002 z m -0.235024,0.435632 a 0.30499996,0.30499996 0 0 1 -0.304943,0.309387 0.3050205,0.3050205 0 0 1 0,-0.610041 0.30499996,0.30499996 0 0 1 0.304943,0.300654 z" /><path
     d="m 0.37485862,15.618928 v 4.5 a 1.5,1.5 0 0 0 1.50000008,1.5 H 12.374859 v -2 h 0.3 v -2 h -0.3 v -2 h -1 v -0.3 h -1 v 0.3 H 8.8748587 v -0.3 h -1 v 0.3 h -1 v -0.3 h -1 v 0.3 h -1 v -0.3 h -1 v 0.3 h -1.5 v -0.3 h -1 v 0.3 z"
     fill="#000000"
     shaper:cutDepth="0.003"
     stroke-linecap="round"
     stroke-linejoin="round"
     id="path2-0"
     style="stroke-width:0.02;stroke-miterlimit:4;stroke-dasharray:none;fill:none;stroke:#ff0000;stroke-opacity:1" /><path
     id="path2-3"
     style="fill:none;stroke:#ff0000;stroke-width:0.02;stroke-miterlimit:4;stroke-dasharray:none;stroke-opacity:1"
     d="m 15.735264,12.285502 h 0.99999 v 0.299981 h 1.000043 v -0.299981 h 0.99999 V 7.1855024 h 4.499983 v 5.0999996 h 0.500021 v 0.299981 h 0.99999 v -0.299981 h 0.999991 v 0.299981 h 0.999991 v -0.299981 h 0.99999 V 10.285469 H 27.435272 V 8.2854874 h 0.299981 V 2.2854914 A 1.9999998,1.9999998 0 0 0 25.735272,0.28551143 H 17.735297 A 1.9999998,1.9999998 0 0 0 15.735264,2.2854914 Z m 3.550015,-9.0029126 a 0.24999997,0.24999997 0 0 1 0.250011,-0.247117 0.25001058,0.25001058 0 0 1 0,0.500021 0.24999997,0.24999997 0 0 1 -0.250011,-0.252904 z m 2.075015,0.0085 a 0.37499994,0.37499994 0 0 1 0.374964,-0.380648 0.37501574,0.37501574 0 1 1 0,0.750031 0.37499994,0.37499994 0 0 1 -0.374964,-0.369383 z m 2.324975,-0.0085 a 0.24999997,0.24999997 0 0 1 0.25001,-0.247117 0.25001058,0.25001058 0 0 1 0,0.500021 0.24999997,0.24999997 0 0 1 -0.25001,-0.252904 z" /></svg>
